<svg version="1.1" id="Layer_1" xmlns="http://www.w3.org/2000/svg" xmlns:xlink="http://www.w3.org/1999/xlink" x="0px" y="0px"
	 width="100%" viewBox="0 0 512 512" enable-background="new 0 0 512 512" xml:space="preserve">
<path fill="#24285B" opacity="1.000000" stroke="none" 
	d="
M1.241317,408.290039 
	C1.000000,307.645782 1.000000,207.291550 1.000000,106.468658 
	C1.784437,105.254723 1.904123,104.290016 1.998870,103.271194 
	C4.100847,80.668671 14.754177,61.785637 28.849785,44.890999 
	C44.934952,25.611732 65.208694,11.998979 89.305290,4.292295 
	C94.594673,2.600621 100.118294,2.797001 105.709923,1.241321 
	C206.354233,1.000000 306.708466,1.000000 407.531342,1.000000 
	C408.745392,1.784457 409.710358,1.903137 410.729065,1.999015 
	C433.318726,4.125119 452.202820,14.726163 469.118164,28.832010 
	C488.422150,44.929775 501.975739,65.222832 509.706451,89.303932 
	C511.404236,94.592476 511.202454,100.117790 512.758667,105.709869 
	C513.000000,206.354233 513.000000,306.708466 513.000000,407.531342 
	C512.215515,408.745239 512.092041,409.709320 512.001648,410.728882 
	C510.156342,431.533264 500.603729,449.085083 488.231689,465.201813 
	C476.452057,480.546783 461.881775,492.853760 444.515778,501.580200 
	C433.190948,507.270996 421.398865,511.634644 408.290070,512.758667 
	C307.645782,513.000000 207.291550,513.000000 106.468658,513.000000 
	C105.374077,512.406250 104.640434,512.097107 103.769257,512.034302 
	C83.039558,510.540222 65.594864,500.926086 49.581623,488.825104 
	C27.797770,472.363342 12.735127,450.800720 4.294761,424.691803 
	C2.586422,419.407318 2.796519,413.881012 1.241317,408.290039 
z"/>
<path fill="#000000" opacity="1.000000" stroke="none" 
	d="
M1.000000,408.468658 
	C3.298422,408.097412 2.780922,409.949860 3.080256,411.311981 
	C9.302719,439.627991 23.181225,463.545837 45.108463,482.462463 
	C61.963844,497.003632 81.512199,506.532715 103.418976,510.988525 
	C104.389191,511.185852 105.443588,511.111969 105.964798,512.619202 
	C72.237289,513.000000 38.474358,512.946533 4.712229,513.087036 
	C1.517742,513.100281 0.913762,512.271973 0.924692,509.227234 
	C1.044703,475.797607 1.000000,442.367371 1.000000,408.468658 
z"/>
<path fill="#000000" opacity="1.000000" stroke="none" 
	d="
M105.531342,1.000000 
	C105.953934,2.929201 104.471634,2.772895 103.173111,3.040953 
	C73.993378,9.064616 49.754753,23.737703 30.510038,46.186638 
	C16.370911,62.679909 7.366614,82.022118 3.013890,103.407135 
	C2.816380,104.377518 2.885637,105.431587 1.379201,105.957657 
	C1.000000,72.237289 1.053483,38.474354 0.912988,4.712223 
	C0.899694,1.517741 1.728041,0.913762 4.772755,0.924692 
	C38.202389,1.044703 71.632614,1.000000 105.531342,1.000000 
z"/>
<path fill="#000000" opacity="1.000000" stroke="none" 
	d="
M408.468658,513.000000 
	C408.097534,510.701202 409.950256,511.218414 411.312653,510.919708 
	C439.640747,504.708191 463.506256,490.768585 482.484253,468.891205 
	C497.097198,452.045746 506.503632,432.456909 510.989838,410.565582 
	C511.188354,409.596832 511.107086,408.539886 512.617493,408.026550 
	C513.000000,441.762695 512.946472,475.525635 513.086975,509.287750 
	C513.100220,512.482178 512.272034,513.086243 509.227264,513.075317 
	C475.797607,512.955322 442.367401,513.000000 408.468658,513.000000 
z"/>
<path fill="#000000" opacity="1.000000" stroke="none" 
	d="
M513.000000,105.531342 
	C511.050049,105.976418 511.232483,104.478088 510.963379,103.186020 
	C504.891968,74.031136 490.314850,49.756470 467.824066,30.503302 
	C451.302216,16.359837 431.973145,7.380206 410.593506,3.013786 
	C409.623199,2.815608 408.568573,2.885950 408.042358,1.379188 
	C441.762695,1.000000 475.525635,1.053482 509.287750,0.912991 
	C512.482239,0.899698 513.086243,1.727981 513.075317,4.772742 
	C512.955322,38.202381 513.000000,71.632614 513.000000,105.531342 
z"/>
<path fill="#F7CC04" opacity="1.000000" stroke="none" 
	d="
M151.776520,160.784058 
	C168.013504,144.634521 190.195297,143.915314 206.642090,158.897919 
	C208.430618,160.527222 210.146683,161.021469 212.413589,161.014343 
	C230.911835,160.956131 249.410324,160.983124 267.908752,160.979111 
	C269.703278,160.978729 271.433258,161.214279 272.796082,159.368515 
	C275.626495,155.535187 279.816437,154.095703 284.300293,154.714157 
	C295.124207,156.207077 304.153290,152.745102 312.232452,145.795898 
	C314.490662,143.853531 317.403046,142.649857 319.574280,140.632584 
	C324.735260,135.837509 329.660309,135.607605 336.075317,138.840317 
	C346.599182,144.143585 357.635376,148.453323 368.565216,152.913239 
	C371.720764,154.200867 372.011780,155.412994 370.401001,158.249405 
	C367.363953,163.597137 364.609802,169.114120 361.940521,174.658218 
	C360.766602,177.096451 359.568970,177.634766 356.957703,176.544418 
	C348.828735,173.150208 340.528381,170.166550 332.397583,166.776520 
	C329.507782,165.571655 327.380798,165.537628 324.715790,167.564789 
	C317.599670,172.977814 310.190369,178.005341 302.602936,183.395370 
	C310.648865,189.122879 318.288452,194.460800 325.800171,199.972885 
	C327.904053,201.516693 329.655121,201.123260 331.796295,200.254517 
	C339.961365,196.941650 348.224823,193.869400 356.365967,190.500427 
	C359.074646,189.379501 360.665192,189.204498 362.102997,192.387665 
	C364.701477,198.140244 367.722839,203.712723 370.786438,209.239120 
	C372.101440,211.611298 371.632416,212.600143 369.198303,213.618454 
	C356.157623,219.074051 343.155121,224.623459 330.204987,230.290283 
	C328.040985,231.237228 326.530060,230.887482 324.727844,229.634064 
	C317.620148,224.690826 310.370941,219.949371 303.308136,214.944122 
	C300.457397,212.923859 297.583221,211.865814 294.048126,212.091202 
	C290.231293,212.334518 286.385651,212.099319 282.553162,212.134399 
	C279.773254,212.159821 276.771515,211.670746 275.207611,209.597839 
	C272.038452,205.397125 267.851318,205.884048 263.575073,205.891541 
	C249.076370,205.916962 234.576874,205.976974 220.079300,205.846436 
	C216.614258,205.815231 215.253922,206.121353 216.945602,210.101669 
	C227.612595,235.200012 238.091324,260.378601 248.544754,285.567017 
	C249.441696,287.728210 250.519150,289.173126 252.880890,289.816315 
	C256.670959,290.848419 258.897400,293.754211 260.761688,297.027893 
	C269.409119,312.212769 278.176849,327.330109 286.690643,342.589294 
	C288.374695,345.607605 290.250519,346.767487 293.723969,346.711121 
	C306.386230,346.505463 319.054047,346.583801 331.719360,346.643707 
	C345.455811,346.708710 352.981110,354.319336 353.018127,368.048737 
	C353.046814,378.698212 353.046814,378.698212 342.418335,378.698212 
	C283.756683,378.698181 225.094894,378.652100 166.433563,378.793915 
	C162.177673,378.804199 160.256546,377.983917 160.914719,373.389893 
	C161.289124,370.776581 160.864914,368.059601 161.016113,365.401581 
	C161.498260,356.925659 165.631897,350.871429 173.612732,347.920044 
	C176.484161,346.858185 178.287170,345.272797 179.745285,342.681335 
	C187.823669,328.324158 195.967606,314.002625 204.253250,299.764435 
	C205.655807,297.354248 205.810791,295.427124 204.728851,292.871521 
	C195.653137,271.433807 186.683838,249.950836 177.759018,228.449738 
	C176.792191,226.120483 175.573639,224.759293 172.918015,224.157791 
	C143.132416,217.411301 132.114304,184.763809 151.776520,160.784058 
z"/>
<path fill="#010100" opacity="1.000000" stroke="none" 
	d="
M209.000000,353.013641 
	C250.128815,353.013672 290.757629,353.003387 331.386444,353.020813 
	C341.809204,353.025269 347.026031,358.587097 346.711121,368.845551 
	C346.628632,371.533295 345.718262,372.418610 343.212158,372.121826 
	C342.391174,372.024628 341.548889,372.107758 340.716339,372.107758 
	C284.934967,372.107819 229.153580,372.108246 173.372208,372.107269 
	C166.767075,372.107147 166.767059,372.103516 167.448502,365.438599 
	C168.237808,357.718445 173.153778,353.128387 181.025909,353.039795 
	C190.182877,352.936768 199.341873,353.014404 209.000000,353.013641 
z"/>
<path fill="#DFF0FB" opacity="1.000000" stroke="none" 
	d="
M230.017349,295.332703 
	C236.006912,295.334930 241.499939,295.338135 246.992966,295.338837 
	C249.768295,295.339203 252.484390,295.810364 253.976700,298.386505 
	C263.035278,314.024200 271.997803,329.717560 280.991241,345.390259 
	C279.265198,346.707703 277.733978,346.246185 276.323578,346.247742 
	C247.693268,346.279907 219.062881,346.279388 190.432526,346.264740 
	C185.131699,346.262024 185.103302,346.204407 187.718750,341.610809 
	C195.123337,328.605988 202.792786,315.743896 209.858215,302.557861 
	C212.774139,297.115906 216.428162,294.563568 222.534927,295.288422 
	C224.832932,295.561188 227.190430,295.332642 230.017349,295.332703 
z"/>
<path fill="#DFF0FB" opacity="1.000000" stroke="none" 
	d="
M153.255066,169.402222 
	C162.080811,157.267151 174.861084,152.256989 187.864716,155.596848 
	C200.606857,158.869537 210.202957,169.445099 211.883377,182.066986 
	C213.638458,195.249771 207.329926,207.966888 195.803543,214.481766 
	C183.424057,221.478867 167.771774,219.307022 157.611450,209.182404 
	C147.094971,198.702957 145.348755,183.554276 153.255066,169.402222 
z"/>
<path fill="#030200" opacity="1.000000" stroke="none" 
	d="
M199.058197,262.894409 
	C194.270035,251.357880 189.688202,240.146118 184.863876,229.039673 
	C183.597549,226.124374 183.519943,224.746063 187.178787,224.209198 
	C196.404480,222.855545 203.766449,217.935791 210.281387,210.661011 
	C221.264206,236.927109 231.982635,262.560883 243.033615,288.989990 
	C237.993515,288.989990 233.459015,288.980988 228.924576,288.992676 
	C224.767471,289.003387 220.244614,287.994598 216.536575,289.296631 
	C210.528641,291.406219 209.437576,288.122314 207.821198,283.914612 
	C205.145645,276.949768 202.076950,270.135986 199.058197,262.894409 
z"/>
<path fill="#050400" opacity="1.000000" stroke="none" 
	d="
M218.621094,186.946350 
	C218.375763,180.831726 217.462463,175.275955 214.848114,170.156464 
	C213.694839,167.898056 214.289474,167.309708 216.666412,167.317169 
	C233.451538,167.369781 250.236984,167.367126 267.022156,167.321640 
	C269.166443,167.315811 269.916321,168.136414 269.897430,170.264572 
	C269.819183,179.072006 269.826538,187.880768 269.889801,196.688431 
	C269.903748,198.635101 269.142700,199.331848 267.251678,199.327927 
	C251.297424,199.294937 235.342941,199.277924 219.388870,199.341629 
	C216.823166,199.351868 216.849670,198.177032 217.249649,196.213181 
	C217.843826,193.295883 218.166656,190.323318 218.621094,186.946350 
z"/>
<path fill="#050400" opacity="1.000000" stroke="none" 
	d="
M334.455017,221.433746 
	C329.954132,224.345291 326.438995,223.498520 322.569550,220.461685 
	C317.213654,216.258240 311.429474,212.571518 305.648834,208.950638 
	C302.793427,207.162064 301.488586,205.126816 301.815063,201.700974 
	C302.125732,198.441055 301.881958,195.128311 301.881958,190.812027 
	C309.735779,196.399002 316.937622,201.361557 323.940033,206.591095 
	C326.370728,208.406387 328.359741,208.628220 331.160217,207.434219 
	C338.648102,204.241638 346.327881,201.501572 353.849915,198.384995 
	C356.318420,197.362228 357.549744,197.670135 358.881409,200.151627 
	C363.582153,208.911285 363.696838,208.875565 354.512482,212.844849 
	C347.951904,215.680191 341.362885,218.449738 334.455017,221.433746 
z"/>
<path fill="#040400" opacity="1.000000" stroke="none" 
	d="
M362.399658,157.481003 
	C362.210236,161.626495 359.617859,164.572174 358.025665,167.965744 
	C356.906433,170.351181 355.220093,168.812775 353.802307,168.262726 
	C346.222534,165.322083 338.604706,162.467102 331.122406,159.293976 
	C328.323822,158.107117 326.368896,158.403839 323.941650,160.226120 
	C317.054474,165.396698 309.932220,170.254211 302.438293,175.563934 
	C301.413177,170.554901 302.018311,165.991074 301.961578,161.468903 
	C301.943848,160.055038 303.223663,159.625961 304.152649,158.992020 
	C311.292389,154.119705 318.514496,149.363846 325.551788,144.348343 
	C327.679535,142.831894 329.364014,143.112854 331.483368,144.039688 
	C341.670715,148.494766 351.902588,152.847931 362.399658,157.481003 
z"/>
<path fill="#DFF0FB" opacity="1.000000" stroke="none" 
	d="
M295.326050,193.984253 
	C295.326172,194.646957 295.326202,194.813110 295.326202,194.979263 
	C295.325378,206.449463 293.406952,208.006729 281.937286,205.748688 
	C278.390228,205.050369 276.251221,202.805771 276.205688,199.217972 
	C276.072937,188.752304 276.043610,178.282257 276.203094,167.817444 
	C276.268585,163.518707 278.795654,161.252350 283.183655,160.990829 
	C295.327911,160.266998 295.325928,160.233627 295.325928,172.552521 
	C295.325958,179.530914 295.325989,186.509308 295.326050,193.984253 
z"/>
<path fill="#FBD007" opacity="1.000000" stroke="none" 
	d="
M243.925140,323.452454 
	C241.016495,331.086395 235.792755,334.678894 229.613113,333.662384 
	C223.283783,332.621216 218.839493,327.565399 218.726639,321.277954 
	C218.599960,314.220734 224.054214,308.416931 231.035843,308.179901 
	C237.732147,307.952545 243.519684,313.219269 244.041580,320.056641 
	C244.117096,321.045990 244.006210,322.049591 243.925140,323.452454 
z"/>
<path fill="#FBD007" opacity="1.000000" stroke="none" 
	d="
M181.674713,173.967239 
	C189.138931,175.995193 192.880692,180.253372 192.982941,186.390778 
	C193.072662,191.776199 189.478455,196.914627 184.409409,198.647842 
	C179.024628,200.489014 173.021957,198.608994 169.804092,193.926788 
	C166.923782,189.735764 166.579437,185.214539 168.943390,180.726578 
	C171.513474,175.847290 175.737030,173.628296 181.674713,173.967239 
z"/>
<path fill="#0B0900" opacity="1.000000" stroke="none" 
	d="
M233.471252,315.009735 
	C236.801971,316.670868 238.353439,319.031158 237.582886,322.397064 
	C237.034409,324.792908 235.539429,326.548248 232.997925,327.082184 
	C230.374512,327.633270 228.044785,327.086487 226.361847,324.852417 
	C224.853531,322.850189 224.489380,320.656952 225.640457,318.344757 
	C227.195877,315.220245 229.790390,314.302673 233.471252,315.009735 
z"/>
<path fill="#0B0900" opacity="1.000000" stroke="none" 
	d="
M185.239563,182.736008 
	C187.165085,185.977402 186.978470,188.778030 184.530746,191.172165 
	C182.594971,193.065567 180.237610,193.586502 177.675583,192.408676 
	C175.378235,191.352570 174.059677,189.589935 173.913681,187.020523 
	C173.756577,184.255371 174.908142,182.216644 177.359360,180.946869 
	C180.290222,179.428650 182.790695,180.254562 185.239563,182.736008 
z"/>
</svg>